<?xml version="1.0" encoding="UTF-8" standalone="no"?>
<!DOCTYPE svg PUBLIC "-//W3C//DTD SVG 1.1//EN"
 "http://www.w3.org/Graphics/SVG/1.1/DTD/svg11.dtd">
<!-- Generated by graphviz version 2.43.0 (0)
 -->
<!-- Title: sourcetree Pages: 1 -->
<svg width="234pt" height="116pt"
 viewBox="0.00 0.00 234.00 116.00" xmlns="http://www.w3.org/2000/svg" xmlns:xlink="http://www.w3.org/1999/xlink">
<g id="graph0" class="graph" transform="scale(1 1) rotate(0) translate(4 112)">
<title>sourcetree</title>
<polygon fill="white" stroke="transparent" points="-4,4 -4,-112 230,-112 230,4 -4,4"/>
<!-- mulle&#45;data -->
<g id="node1" class="node">
<title>mulle&#45;data</title>
<polygon fill="yellow" stroke="black" points="150,-108 58,-108 58,-72 150,-72 150,-108"/>
<text text-anchor="middle" x="104" y="-86.3" font-family="Times,serif" font-size="14.00">mulle&#45;data</text>
</g>
<!-- mulle&#45;c11 -->
<g id="node2" class="node">
<title>mulle&#45;c11</title>
<polygon fill="lightgrey" stroke="black" points="86,-36 0,-36 0,0 86,0 86,-36"/>
<text text-anchor="middle" x="43" y="-14.3" font-family="Times,serif" font-size="14.00">mulle&#45;c11</text>
</g>
<!-- mulle&#45;data&#45;&gt;mulle&#45;c11 -->
<g id="edge1" class="edge">
<title>mulle&#45;data&#45;&gt;mulle&#45;c11</title>
<path fill="none" stroke="black" d="M88.92,-71.7C81.61,-63.3 72.69,-53.07 64.66,-43.86"/>
<polygon fill="black" stroke="black" points="67.11,-41.34 57.91,-36.1 61.84,-45.94 67.11,-41.34"/>
</g>
<!-- src/farmhash&#45;c -->
<g id="node3" class="node">
<title>src/farmhash&#45;c</title>
<polygon fill="lightgrey" stroke="black" points="226,-36 104,-36 104,0 226,0 226,-36"/>
<text text-anchor="middle" x="165" y="-14.3" font-family="Times,serif" font-size="14.00">src/farmhash&#45;c</text>
</g>
<!-- mulle&#45;data&#45;&gt;src/farmhash&#45;c -->
<g id="edge2" class="edge">
<title>mulle&#45;data&#45;&gt;src/farmhash&#45;c</title>
<path fill="none" stroke="black" d="M119.08,-71.7C126.39,-63.3 135.31,-53.07 143.34,-43.86"/>
<polygon fill="black" stroke="black" points="146.16,-45.94 150.09,-36.1 140.89,-41.34 146.16,-45.94"/>
</g>
</g>
</svg>
