<?xml version="1.0" encoding="UTF-8" standalone="no"?>
<!DOCTYPE svg PUBLIC "-//W3C//DTD SVG 1.1//EN"
 "http://www.w3.org/Graphics/SVG/1.1/DTD/svg11.dtd">
<!-- Generated by graphviz version 2.43.0 (0)
 -->
<!-- Title: sourcetree Pages: 1 -->
<svg width="222pt" height="116pt"
 viewBox="0.00 0.00 222.00 116.00" xmlns="http://www.w3.org/2000/svg" xmlns:xlink="http://www.w3.org/1999/xlink">
<g id="graph0" class="graph" transform="scale(1 1) rotate(0) translate(4 112)">
<title>sourcetree</title>
<polygon fill="white" stroke="transparent" points="-4,4 -4,-112 218,-112 218,4 -4,4"/>
<!-- mulle&#45;data -->
<g id="node1" class="node">
<title>mulle&#45;data</title>
<polygon fill="yellow" stroke="black" points="147,-108 55,-108 55,-72 147,-72 147,-108"/>
<text text-anchor="middle" x="101" y="-86.3" font-family="Times,serif" font-size="14.00">mulle&#45;data</text>
</g>
<!-- mulle&#45;c11 -->
<g id="node2" class="node">
<title>mulle&#45;c11</title>
<polygon fill="lightgrey" stroke="black" points="86,-36 0,-36 0,0 86,0 86,-36"/>
<text text-anchor="middle" x="43" y="-14.3" font-family="Times,serif" font-size="14.00">mulle&#45;c11</text>
</g>
<!-- mulle&#45;data&#45;&gt;mulle&#45;c11 -->
<g id="edge1" class="edge">
<title>mulle&#45;data&#45;&gt;mulle&#45;c11</title>
<path fill="none" stroke="black" d="M86.66,-71.7C79.71,-63.3 71.23,-53.07 63.6,-43.86"/>
<polygon fill="black" stroke="black" points="66.25,-41.57 57.17,-36.1 60.86,-46.04 66.25,-41.57"/>
</g>
<!-- src/farmhash -->
<g id="node3" class="node">
<title>src/farmhash</title>
<polygon fill="lightgrey" stroke="black" points="214,-36 104,-36 104,0 214,0 214,-36"/>
<text text-anchor="middle" x="159" y="-14.3" font-family="Times,serif" font-size="14.00">src/farmhash</text>
</g>
<!-- mulle&#45;data&#45;&gt;src/farmhash -->
<g id="edge2" class="edge">
<title>mulle&#45;data&#45;&gt;src/farmhash</title>
<path fill="none" stroke="black" d="M115.34,-71.7C122.29,-63.3 130.77,-53.07 138.4,-43.86"/>
<polygon fill="black" stroke="black" points="141.14,-46.04 144.83,-36.1 135.75,-41.57 141.14,-46.04"/>
</g>
</g>
</svg>
