<?xml version="1.0" encoding="UTF-8" standalone="no"?>
<!DOCTYPE svg PUBLIC "-//W3C//DTD SVG 1.1//EN"
 "http://www.w3.org/Graphics/SVG/1.1/DTD/svg11.dtd">
<!-- Generated by graphviz version 2.43.0 (0)
 -->
<!-- Title: sourcetree Pages: 1 -->
<svg width="208pt" height="116pt"
 viewBox="0.00 0.00 208.00 116.00" xmlns="http://www.w3.org/2000/svg" xmlns:xlink="http://www.w3.org/1999/xlink">
<g id="graph0" class="graph" transform="scale(1 1) rotate(0) translate(4 112)">
<title>sourcetree</title>
<polygon fill="white" stroke="transparent" points="-4,4 -4,-112 204,-112 204,4 -4,4"/>
<!-- mulle&#45;data -->
<g id="node1" class="node">
<title>mulle&#45;data</title>
<polygon fill="yellow" stroke="black" points="148,-108 56,-108 56,-72 148,-72 148,-108"/>
<text text-anchor="middle" x="102" y="-86.3" font-family="Times,serif" font-size="14.00">mulle&#45;data</text>
</g>
<!-- farmhash&#45;c -->
<g id="node2" class="node">
<title>farmhash&#45;c</title>
<g id="a_node2"><a xlink:href="https://github.com/mulle-c/farmhash-c@*" xlink:title="farmhash&#45;c">
<polygon fill="lightgrey" stroke="black" points="96,-36 0,-36 0,0 96,0 96,-36"/>
<text text-anchor="middle" x="48" y="-14.3" font-family="Times,serif" font-size="14.00">farmhash&#45;c</text>
</a>
</g>
</g>
<!-- mulle&#45;data&#45;&gt;farmhash&#45;c -->
<g id="edge1" class="edge">
<title>mulle&#45;data&#45;&gt;farmhash&#45;c</title>
<path fill="none" stroke="black" d="M88.65,-71.7C82.24,-63.39 74.44,-53.28 67.39,-44.14"/>
<polygon fill="black" stroke="black" points="70.07,-41.88 61.19,-36.1 64.53,-46.16 70.07,-41.88"/>
</g>
<!-- mulle&#45;c11 -->
<g id="node3" class="node">
<title>mulle&#45;c11</title>
<g id="a_node3"><a xlink:href="https://github.com/mulle-c/mulle-c11" xlink:title="mulle&#45;c11">
<polygon fill="lightgrey" stroke="black" points="200,-36 114,-36 114,0 200,0 200,-36"/>
<text text-anchor="middle" x="157" y="-14.3" font-family="Times,serif" font-size="14.00">mulle&#45;c11</text>
</a>
</g>
</g>
<!-- mulle&#45;data&#45;&gt;mulle&#45;c11 -->
<g id="edge2" class="edge">
<title>mulle&#45;data&#45;&gt;mulle&#45;c11</title>
<path fill="none" stroke="black" d="M115.6,-71.7C122.12,-63.39 130.07,-53.28 137.25,-44.14"/>
<polygon fill="black" stroke="black" points="140.13,-46.13 143.56,-36.1 134.63,-41.81 140.13,-46.13"/>
</g>
</g>
</svg>
