<?xml version="1.0" encoding="UTF-8" standalone="no"?>
<!DOCTYPE svg PUBLIC "-//W3C//DTD SVG 1.1//EN"
 "http://www.w3.org/Graphics/SVG/1.1/DTD/svg11.dtd">
<!-- Generated by graphviz version 2.43.0 (0)
 -->
<!-- Title: sourcetree Pages: 1 -->
<svg width="192pt" height="116pt"
 viewBox="0.00 0.00 192.00 116.00" xmlns="http://www.w3.org/2000/svg" xmlns:xlink="http://www.w3.org/1999/xlink">
<g id="graph0" class="graph" transform="scale(1 1) rotate(0) translate(4 112)">
<title>sourcetree</title>
<polygon fill="white" stroke="transparent" points="-4,4 -4,-112 188,-112 188,4 -4,4"/>
<!-- mulle&#45;data -->
<g id="node1" class="node">
<title>mulle&#45;data</title>
<polygon fill="yellow" stroke="black" points="139,-108 47,-108 47,-72 139,-72 139,-108"/>
<text text-anchor="middle" x="93" y="-86.3" font-family="Times,serif" font-size="14.00">mulle&#45;data</text>
</g>
<!-- mulle&#45;c11 -->
<g id="node2" class="node">
<title>mulle&#45;c11</title>
<g id="a_node2"><a xlink:href="https://github.com/mulle-c/mulle-c11" xlink:title="mulle&#45;c11">
<polygon fill="lightgrey" stroke="black" points="86,-36 0,-36 0,0 86,0 86,-36"/>
<text text-anchor="middle" x="43" y="-14.3" font-family="Times,serif" font-size="14.00">mulle&#45;c11</text>
</a>
</g>
</g>
<!-- mulle&#45;data&#45;&gt;mulle&#45;c11 -->
<g id="edge1" class="edge">
<title>mulle&#45;data&#45;&gt;mulle&#45;c11</title>
<path fill="none" stroke="black" d="M80.64,-71.7C74.77,-63.47 67.63,-53.48 61.16,-44.42"/>
<polygon fill="black" stroke="black" points="63.88,-42.21 55.22,-36.1 58.18,-46.28 63.88,-42.21"/>
</g>
<!-- xxhash.h -->
<g id="node3" class="node">
<title>xxhash.h</title>
<g id="a_node3"><a xlink:href="https://raw.githubusercontent.com/mulle-c/xxHash" xlink:title="xxhash.h">
<polygon fill="lightgrey" stroke="black" points="184,-36 104,-36 104,0 184,0 184,-36"/>
<text text-anchor="middle" x="144" y="-14.3" font-family="Times,serif" font-size="14.00">xxhash.h</text>
</a>
</g>
</g>
<!-- mulle&#45;data&#45;&gt;xxhash.h -->
<g id="edge2" class="edge">
<title>mulle&#45;data&#45;&gt;xxhash.h</title>
<path fill="none" stroke="black" d="M105.61,-71.7C111.6,-63.47 118.88,-53.48 125.48,-44.42"/>
<polygon fill="black" stroke="black" points="128.48,-46.25 131.54,-36.1 122.82,-42.13 128.48,-46.25"/>
</g>
</g>
</svg>
